<svg width="240" height="240" viewBox="0 0 240 240" fill="none" xmlns="http://www.w3.org/2000/svg">
  <defs>
    <linearGradient id="paint0" x1="28" y1="32" x2="212" y2="210" gradientUnits="userSpaceOnUse">
      <stop stop-color="#7C3AED"/>
      <stop offset="1" stop-color="#22D3EE"/>
    </linearGradient>
  </defs>
  <rect x="20" y="20" width="200" height="200" rx="48" fill="url(#paint0)"/>
  <path d="M80 86C80 77.1634 87.1634 70 96 70H120C128.837 70 136 77.1634 136 86V94C136 102.837 128.837 110 120 110H104V154C104 162.837 96.8366 170 88 170H80V86Z" fill="white" opacity="0.92"/>
  <path d="M104 94C104 85.1634 111.163 78 120 78H144C152.837 78 160 85.1634 160 94V102C160 110.837 152.837 118 144 118H128V154C128 162.837 120.837 170 112 170H104V94Z" fill="white" opacity="0.9"/>
</svg>
